<?xml version="1.0" encoding="UTF-8"?>
<svg xmlns="http://www.w3.org/2000/svg" viewBox="0 0 48 48" width="48" height="48">
  <!-- Gradient definitions -->
  <defs>
    <linearGradient id="gradLeaf" x1="0" y1="0" x2="0" y2="1">
      <stop offset="0%" stop-color="#a8f5a9"/>
      <stop offset="60%" stop-color="#3abd72"/>
      <stop offset="100%" stop-color="#156b3f"/>
    </linearGradient>

    <radialGradient id="highlight" cx="0.35" cy="0.35" r="0.45">
      <stop offset="0%" stop-color="#ffffff55"/>
      <stop offset="100%" stop-color="#ffffff00"/>
    </radialGradient>

    <!-- Inner shadow filter -->
    <filter id="innerShadow" x="-10%" y="-10%" width="120%" height="120%">
      <feGaussianBlur in="SourceAlpha" stdDeviation="1.5" result="blur"/>
      <feOffset dx="0" dy="1" result="offsetBlur"/>
      <feComposite in="offsetBlur" in2="SourceAlpha" operator="arithmetic" k2="-1" k3="1" result="innerShadow"/>
      <feMerge>
        <feMergeNode in="innerShadow"/>
        <feMergeNode in="SourceGraphic"/>
      </feMerge>
    </filter>

    <!-- Drop shadow filter -->
    <filter id="dropShadow" x="-20%" y="-20%" width="140%" height="140%">
      <feGaussianBlur in="SourceAlpha" stdDeviation="1.5" result="blur"/>
      <feOffset dx="0" dy="2" result="offsetBlur"/>
      <feMerge>
        <feMergeNode in="offsetBlur"/>
        <feMergeNode in="SourceGraphic"/>
      </feMerge>
    </filter>
  </defs>

  <!-- Leaf shape group -->
  <g filter="url(#dropShadow)">
    <!-- Main leaf body -->
    <path id="leafShape" d="M24 2
                             C16 8 11 17 12 30
                             C18 26 26 26 34 30
                             C35 17 32 8 24 2Z"
          fill="url(#gradLeaf)" stroke="#0e5b34" stroke-width="1.4"
          filter="url(#innerShadow)"/>
    <!-- Highlight overlay -->
    <use href="#leafShape" fill="url(#highlight)"/>

    <!-- Central vein -->
    <path d="M12 30 C18 26 26 26 34 30"
          stroke="#0e5b34" stroke-width="1.4" stroke-linecap="round"/>

    <!-- Side veins -->
    <path d="M18 17 C20 19 22 21 23 24" stroke="#177b49" stroke-width="1" stroke-linecap="round"/>
    <path d="M21.5 11 C23 13 25 16 26 19" stroke="#177b49" stroke-width="0.9" stroke-linecap="round"/>
    <path d="M28 15 C29 17 30 19 31 22" stroke="#177b49" stroke-width="0.9" stroke-linecap="round"/>
  </g>
</svg>
