<!--?xml version="1.0" encoding="UTF-8"?-->
<svg width="64" height="64" viewBox="0 0 64 64" fill="none" xmlns="http://www.w3.org/2000/svg" stroke="currentColor" stroke-width="2" stroke-linecap="round" stroke-linejoin="round">

  <!-- Bombilla -->
  <path d="M32 6a18 18 0 0 0-9 33v5a3 3 0 0 0 3 3h12a3 3 0 0 0 3-3v-5A18 18 0 0 0 32 6Z"></path>

  <!-- Casquillo -->
  <rect x="23" y="44" width="18" height="6" rx="2"></rect>

  <!-- Destellos creatividad -->
  <line x1="32" y1="2" x2="32" y2="6"></line>
  <line x1="50" y1="14" x2="47" y2="17"></line>
  <line x1="14" y1="14" x2="17" y2="17"></line>
  <line x1="54" y1="32" x2="50" y2="32"></line>
  <line x1="10" y1="32" x2="14" y2="32"></line>
  <line x1="47" y1="47" x2="50" y2="50"></line>
  <line x1="17" y1="47" x2="14" y2="50"></line>

  <!-- Base redondeada de la bombilla -->
  <path d="M26 56h12"></path>
</svg>
